<svg xmlns="http://www.w3.org/2000/svg" xmlns:xlink="http://www.w3.org/1999/xlink"><symbol id="sprite">
  <symbol viewBox="0 0 176 52" id="logo">
    <path d="M139.016.936h19.462A17.526 17.526 0 0 1 176 18.452V33.55a17.502 17.502 0 0 1-5.132 12.386 17.52 17.52 0 0 1-12.39 5.13h-19.262a17.523 17.523 0 0 1-16.188-10.813 17.502 17.502 0 0 1-1.334-6.703V18.452c0-9.676 7.642-17.516 17.322-17.516Z" fill="currentColor"/>
    <path d="M143.778 29.278v-.85h-5.126V24.64h9.994v4.505c0 7.09-3.387 11.21-9.793 11.21-6.606 0-10.443-5.204-10.443-14.38 0-8.947 4.187-14.425 11.869-14.425 2.902 0 5.405.768 6.773 1.77v3.898a12.587 12.587 0 0 0-6.539-1.887c-5.038 0-7.174 3.42-7.174 10.644 0 7.006 1.769 10.59 5.605 10.59 3.665.019 4.834-2.817 4.834-7.287ZM169.371 29.811c0 6.808-3.67 10.56-8.948 10.56-5.277 0-8.947-3.752-8.947-10.509 0-6.807 3.67-10.56 8.947-10.56 5.278 0 8.948 3.737 8.948 10.51Zm-4.956 0c0-4.67-1.335-6.721-3.986-6.721-2.651 0-3.988 2.05-3.988 6.773 0 4.67 1.335 6.723 3.988 6.723s3.986-2.069 3.986-6.775Z" fill="#fff"/>
    <path d="M13.746 15.75h-2.191c-3.98 0-6.077 2.018-6.077 5.004 0 3.387 1.45 4.955 4.437 6.973l2.452 1.653-7.09 10.59H0l6.356-9.475C2.686 27.877.634 25.342.634 21.022c0-5.405 3.748-9.059 10.87-9.059h7.088v28.01H13.73V15.75h.016Zm24.89 3.954v20.268h-4.788v-8.458h-6.407v8.458h-4.788V19.704h4.788v8.023h6.407v-8.023h4.788Zm21.636 24.89h-4.437v-4.638h-10.76v4.638h-4.438v-8.416h1.501c1.686-3.387 2.02-9.793 2.02-14.747v-1.735h13.977v16.482h2.137v8.416ZM53.348 23.49h-5.07v.6c0 3.503-.366 9.024-1.703 12.094h6.773V23.491ZM71.03 40.355c-6.121 0-9.592-3.42-9.592-10.475 0-6.123 2.786-10.59 8.626-10.59 4.787 0 7.89 2.667 7.89 9.708v2.534h-11.56c.198 3.388 1.533 5.038 5.037 5.038 2.336 0 4.837-.883 6.322-1.9v3.918c-1.4.968-3.654 1.767-6.723 1.767Zm-4.637-12.361h6.689v-.398c0-2.535-.73-4.503-3.104-4.503-2.284-.02-3.451 1.681-3.585 4.9Zm19.584 2.02v9.958h-4.804V19.704h4.804v9.341l6.782-9.341h4.839l-6.773 9.341 7.69 10.91h-5.448l-7.09-9.942Zm12.262-.167c0-6.174 3.186-10.56 9.312-10.56 2.374 0 4.154.4 5.155.966v4.072c-.968-.6-2.787-1.252-4.638-1.252-3.137 0-4.872 2.253-4.872 6.657 0 4.187 1.419 6.855 4.839 6.855 2.018 0 3.469-.517 4.671-1.368v3.904c-1.169.851-2.739 1.251-4.956 1.251-6.409-.017-9.513-3.752-9.513-10.525h.002Z" fill="#21201F"/>
  </symbol>
  <symbol viewBox="0 0 27 24" id="arrow">
    <path d="M2.25 10.5a1.5 1.5 0 0 0 0 3v-3Zm23.56 2.56a1.5 1.5 0 0 0 0-2.12l-9.545-9.547a1.5 1.5 0 1 0-2.122 2.122L22.63 12l-8.486 8.485a1.5 1.5 0 1 0 2.122 2.122l9.546-9.546Zm-23.56.44h22.5v-3H2.25v3Z" fill="currentColor"/>
  </symbol>
</symbol></svg>