<svg width="83" height="83" viewBox="0 0 83 83" fill="none" xmlns="http://www.w3.org/2000/svg">
<path d="M18 40.4849C18 26.0673 42.2657 17.872 49.5424 22.1214C56.8492 26.3708 56.7891 54.6597 49.5424 58.8788C42.2657 63.1282 18 54.9329 18 40.4849Z" fill="url(#paint0_linear_1_514)"/>
<path d="M18 40.4849C18 26.0673 42.2657 17.872 49.5424 22.1214C56.8492 26.3708 56.7891 54.6597 49.5424 58.8788C42.2657 63.1282 18 54.9329 18 40.4849Z" fill="white" fill-opacity="0.5"/>
<path d="M51.6313 71C47.9619 71 44.2332 68.4064 44.2332 63.4604C44.2332 60.3843 45.8608 57.851 48.3466 56.6446L41.1557 29.0498C37.1903 28.9894 33.8463 29.0799 30.7392 29.3212L30.5024 26.3054C33.9943 26.0339 37.7229 25.9435 42.3097 26.0339L43.4342 26.0641L51.1874 55.9208C55.5079 55.7097 58.9998 58.997 58.9998 63.4604C59.0294 67.7731 55.8334 71 51.6313 71ZM51.6313 58.9367C49.0568 58.9367 47.1925 60.8366 47.1925 63.4604C47.1925 66.808 49.5895 67.9842 51.6313 67.9842C54.2058 67.9842 56.0702 66.0842 56.0702 63.4604C56.0702 60.8366 54.2058 58.9367 51.6313 58.9367ZM13.3981 71C9.72863 71 6 68.4064 6 63.4604C6 59.1478 9.16638 55.9208 13.3981 55.9208C17.0971 55.9208 19.9972 58.424 20.6482 61.9525H29.1708C32.5739 61.9525 34.1719 61.289 36.628 58.9367C38.7291 56.8859 40.7414 54.7145 42.6057 52.4526L44.8843 54.3828C42.9608 56.7351 40.8597 58.997 38.6699 61.1081C35.6515 64.0334 33.3433 64.9683 29.1708 64.9683H20.6778C20.0267 68.4969 17.1267 71 13.3981 71ZM13.3981 58.9367C10.8235 58.9367 8.95923 60.8366 8.95923 63.4604C8.95923 66.808 11.3562 67.9842 13.3981 67.9842C15.9726 67.9842 17.8369 66.0842 17.8369 63.4604C17.8369 60.8366 15.9726 58.9367 13.3981 58.9367ZM50.8323 33.091H48.9088C47.8435 33.091 46.9557 32.2164 46.9557 31.1005C46.9557 30.0148 47.8139 29.1402 48.9088 29.1402H50.8323V33.091Z" fill="#21201F"/>
<path d="M64.1281 26.5978L55 16.9198L56.5102 15.3261L65.6606 25.0041L64.1281 26.5978ZM56.5102 26.5978L55 25.0041L64.1725 15.3261L65.6606 16.9198L56.5102 26.5978Z" fill="#21201F"/>
<path d="M70.0268 21.4239V18.9293H72.0701C72.5735 18.9293 73.0103 18.8447 73.3804 18.6753C73.7506 18.4905 74.0393 18.2287 74.2466 17.8899C74.4539 17.5358 74.5575 17.1123 74.5575 16.6196C74.5575 16.1576 74.4539 15.7649 74.2466 15.4416C74.0541 15.1182 73.7654 14.8718 73.3804 14.7024C72.9955 14.5177 72.5217 14.4253 71.959 14.4253C71.2631 14.4253 70.5968 14.5562 69.9602 14.8179C69.3383 15.0643 68.672 15.4724 67.9613 16.0421V13.3628C68.3759 13.0548 68.8053 12.8007 69.2495 12.6005C69.6937 12.4004 70.1749 12.2541 70.6931 12.1617C71.2113 12.0539 71.7665 12 72.3588 12C73.3952 12 74.291 12.1848 75.0461 12.5543C75.8013 12.9239 76.3861 13.4398 76.8007 14.1019C77.2153 14.764 77.4226 15.5263 77.4226 16.3886C77.4226 16.9429 77.3263 17.4434 77.1338 17.8899C76.9413 18.3365 76.6896 18.7138 76.3787 19.0217C76.0678 19.3297 75.7124 19.5761 75.3127 19.7609C74.9129 19.9457 74.5057 20.0611 74.0911 20.1073V20.0149C74.5945 20.0611 75.0758 20.1843 75.5347 20.3845C76.0086 20.5693 76.4305 20.8311 76.8007 21.1698C77.1708 21.5086 77.4596 21.9167 77.6669 22.394C77.889 22.8714 78 23.418 78 24.034C78 25.0349 77.7557 25.9126 77.2671 26.6671C76.7785 27.4062 76.0974 27.9837 75.2238 28.3995C74.3502 28.7998 73.3286 29 72.1589 29C71.5667 29 70.9966 28.9461 70.4488 28.8383C69.9009 28.7459 69.3901 28.5996 68.9163 28.3995C68.4425 28.1839 68.0057 27.9298 67.606 27.6372V24.9579C68.3019 25.5122 68.9978 25.9203 69.6937 26.1821C70.3896 26.4438 71.1373 26.5747 71.9368 26.5747C72.6179 26.5747 73.1879 26.4669 73.6469 26.2514C74.1059 26.0358 74.4465 25.7355 74.6686 25.3505C74.9055 24.9502 75.0239 24.4728 75.0239 23.9185C75.0239 23.3641 74.9129 22.9022 74.6908 22.5326C74.4687 22.163 74.1356 21.8859 73.6914 21.7011C73.2472 21.5163 72.6771 21.4239 71.9812 21.4239H70.0268Z" fill="#21201F"/>
<defs>
<linearGradient id="paint0_linear_1_514" x1="18" y1="40.5" x2="55" y2="40.5" gradientUnits="userSpaceOnUse">
<stop stop-color="#FF5C4D"/>
<stop offset="0.25" stop-color="#EB469F"/>
<stop offset="0.72" stop-color="#8341EF"/>
<stop offset="1" stop-color="#3F68F9"/>
</linearGradient>
</defs>
</svg>
